<svg width="623" height="559" viewBox="0 0 623 559" fill="none" xmlns="http://www.w3.org/2000/svg">
<path d="M308.227 4.32609C297.288 -1.66927 284.054 -1.40477 273.291 4.94325C262.528 11.2913 256 22.8412 256 35.2727V359.727C256 372.159 262.617 383.709 273.291 390.057C283.966 396.405 297.288 396.669 308.227 390.674L604.65 228.447C615.942 222.275 623 210.372 623 197.5C623 184.628 615.942 172.725 604.65 166.553L308.227 4.32609Z" fill="#944BD4"/>
<path d="M152 47C165.3 47 176 57.7 176 71V111H221V175H160C142.3 175 128 189.3 128 207V399C128 416.7 142.3 431 160 431H352C369.7 431 384 416.7 384 399V389.103L448 354.076V383H488C501.3 383 512 393.7 512 407C512 420.3 501.3 431 488 431H448C448 466.3 419.3 495 384 495V535C384 548.3 373.3 559 360 559C346.7 559 336 548.3 336 535V495H280V535C280 548.3 269.3 559 256 559C242.7 559 232 548.3 232 535V495H176V535C176 548.3 165.3 559 152 559C138.7 559 128 548.3 128 535V495C92.7 495 64 466.3 64 431H24C10.7 431 0 420.3 0 407C0 393.7 10.7 383 24 383H64V327H24C10.7 327 0 316.3 0 303C0 289.7 10.7 279 24 279H64V223H24C10.7 223 0 212.3 0 199C0 185.7 10.7 175 24 175H64C64 139.7 92.7 111 128 111V71C128 57.7 138.7 47 152 47Z" fill="#944BD4"/>
</svg>
